<?xml version="1.0" encoding="UTF-8"?>
<!-- need-singularity org avatar · Hexagon + Gravitational Well · monochrome -->
<svg xmlns="http://www.w3.org/2000/svg" viewBox="0 0 512 512" width="512" height="512">
  <defs>
    <radialGradient id="well" cx="50%" cy="50%" r="50%">
      <stop offset="0%"   stop-color="#000000"/>
      <stop offset="60%"  stop-color="#000000"/>
      <stop offset="85%"  stop-color="#0c0c0c"/>
      <stop offset="100%" stop-color="#1a1a1a"/>
    </radialGradient>
    <radialGradient id="bg" cx="50%" cy="50%" r="75%">
      <stop offset="0%"   stop-color="#1c1c1c"/>
      <stop offset="100%" stop-color="#050505"/>
    </radialGradient>
    <!-- glow around event horizon -->
    <radialGradient id="photon" cx="50%" cy="50%" r="50%">
      <stop offset="0%"   stop-color="#ffffff" stop-opacity="0.0"/>
      <stop offset="70%"  stop-color="#ffffff" stop-opacity="0.0"/>
      <stop offset="85%"  stop-color="#ffffff" stop-opacity="0.35"/>
      <stop offset="100%" stop-color="#ffffff" stop-opacity="0.0"/>
    </radialGradient>
  </defs>

  <!-- Full-canvas body with macOS squircle corners (radius 226/1024 → 113/512).
       macOS Dock does NOT auto-mask app icons, so squircle must be baked into PNG. -->
  <rect x="0" y="0" width="512" height="512" rx="113" ry="113" fill="url(#bg)"/>

  <!-- concentric hexagons (flat-top) warping toward center.
       scale 0.75 → outer vertex 172 px from center (body half-width 206 → 34 px margin inside squircle). -->
  <g transform="translate(256 256)" fill="none" stroke="#f0f0f0" stroke-linejoin="miter">
    <polygon points="195.5,0 97.75,169.308 -97.75,169.308 -195.5,0 -97.75,-169.308 97.75,-169.308"
             stroke-width="3.5" stroke-opacity="1.00"/>
    <polygon points="170,0 85,147.224 -85,147.224 -170,0 -85,-147.224 85,-147.224"
             stroke-width="2.6" stroke-opacity="0.85"/>
    <polygon points="146.2,0 73.1,126.613 -73.1,126.613 -146.2,0 -73.1,-126.613 73.1,-126.613"
             stroke-width="2.2" stroke-opacity="0.76"/>
    <polygon points="124.1,0 62.05,107.473 -62.05,107.473 -124.1,0 -62.05,-107.473 62.05,-107.473"
             stroke-width="1.9" stroke-opacity="0.68"/>
    <polygon points="103.7,0 51.85,89.807 -51.85,89.807 -103.7,0 -51.85,-89.807 51.85,-89.807"
             stroke-width="1.7" stroke-opacity="0.60"/>
    <polygon points="85,0 42.5,73.613 -42.5,73.613 -85,0 -42.5,-73.613 42.5,-73.613"
             stroke-width="1.5" stroke-opacity="0.52"/>
    <polygon points="68,0 34,58.89 -34,58.89 -68,0 -34,-58.89 34,-58.89"
             stroke-width="1.4" stroke-opacity="0.44"/>
    <polygon points="52.7,0 26.35,45.64 -26.35,45.64 -52.7,0 -26.35,-45.64 26.35,-45.64"
             stroke-width="1.3" stroke-opacity="0.36"/>
    <polygon points="39.1,0 19.55,33.861 -19.55,33.861 -39.1,0 -19.55,-33.861 19.55,-33.861"
             stroke-width="1.2" stroke-opacity="0.28"/>
  </g>

  <!-- 6 radial spokes (subtle) -->
  <g transform="translate(256 256)" stroke="#aaaaaa" stroke-width="1.2" stroke-opacity="0.30" fill="none">
    <line x1="0" y1="0" x2="195.5" y2="0"/>
    <line x1="0" y1="0" x2="97.75" y2="169.308"/>
    <line x1="0" y1="0" x2="-97.75" y2="169.308"/>
    <line x1="0" y1="0" x2="-195.5" y2="0"/>
    <line x1="0" y1="0" x2="-97.75" y2="-169.308"/>
    <line x1="0" y1="0" x2="97.75" y2="-169.308"/>
  </g>

  <!-- photon sphere glow -->
  <circle cx="256" cy="256" r="46" fill="url(#photon)"/>
  <!-- event horizon — solid dark disk -->
  <circle cx="256" cy="256" r="30" fill="url(#well)"/>
  <!-- thin ring at horizon edge -->
  <circle cx="256" cy="256" r="30" fill="none" stroke="#ffffff" stroke-width="0.8" stroke-opacity="0.55"/>
</svg>
