<?xml version="1.0" encoding="UTF-8"?>
<!-- need-singularity org avatar · Hexagon + Gravitational Well · monochrome -->
<svg xmlns="http://www.w3.org/2000/svg" viewBox="0 0 512 512" width="512" height="512">
  <defs>
    <radialGradient id="well" cx="50%" cy="50%" r="50%">
      <stop offset="0%"   stop-color="#000000"/>
      <stop offset="60%"  stop-color="#000000"/>
      <stop offset="85%"  stop-color="#0c0c0c"/>
      <stop offset="100%" stop-color="#1a1a1a"/>
    </radialGradient>
    <radialGradient id="bg" cx="50%" cy="50%" r="75%">
      <stop offset="0%"   stop-color="#1c1c1c"/>
      <stop offset="100%" stop-color="#050505"/>
    </radialGradient>
    <!-- glow around event horizon -->
    <radialGradient id="photon" cx="50%" cy="50%" r="50%">
      <stop offset="0%"   stop-color="#ffffff" stop-opacity="0.0"/>
      <stop offset="70%"  stop-color="#ffffff" stop-opacity="0.0"/>
      <stop offset="85%"  stop-color="#ffffff" stop-opacity="0.35"/>
      <stop offset="100%" stop-color="#ffffff" stop-opacity="0.0"/>
    </radialGradient>
  </defs>

  <!-- Full-canvas body with macOS squircle corners (radius 226/1024 → 113/512).
       macOS Dock does NOT auto-mask app icons, so squircle must be baked into PNG. -->
  <rect x="50" y="50" width="412" height="412" rx="92" ry="92" fill="url(#bg)"/>

  <!-- concentric hexagons (flat-top) warping toward center.
       scale 0.75 → outer vertex 172 px from center (body half-width 206 → 34 px margin inside squircle). -->
  <g transform="translate(256 256)" fill="none" stroke="#f0f0f0" stroke-linejoin="miter">
    <polygon points="149.5,0 74.75,129.47 -74.75,129.47 -149.5,0 -74.75,-129.47 74.75,-129.47"
             stroke-width="3.5" stroke-opacity="1.00"/>
    <polygon points="130,0 65,112.582 -65,112.582 -130,0 -65,-112.582 65,-112.582"
             stroke-width="2.6" stroke-opacity="0.85"/>
    <polygon points="111.8,0 55.9,96.822 -55.9,96.822 -111.8,0 -55.9,-96.822 55.9,-96.822"
             stroke-width="2.2" stroke-opacity="0.76"/>
    <polygon points="94.9,0 47.45,82.185 -47.45,82.185 -94.9,0 -47.45,-82.185 47.45,-82.185"
             stroke-width="1.9" stroke-opacity="0.68"/>
    <polygon points="79.3,0 39.65,68.676 -39.65,68.676 -79.3,0 -39.65,-68.676 39.65,-68.676"
             stroke-width="1.7" stroke-opacity="0.60"/>
    <polygon points="65,0 32.5,56.292 -32.5,56.292 -65,0 -32.5,-56.292 32.5,-56.292"
             stroke-width="1.5" stroke-opacity="0.52"/>
    <polygon points="52,0 26,45.034 -26,45.034 -52,0 -26,-45.034 26,-45.034"
             stroke-width="1.4" stroke-opacity="0.44"/>
    <polygon points="40.3,0 20.15,34.902 -20.15,34.902 -40.3,0 -20.15,-34.902 20.15,-34.902"
             stroke-width="1.3" stroke-opacity="0.36"/>
    <polygon points="29.9,0 14.95,25.894 -14.95,25.894 -29.9,0 -14.95,-25.894 14.95,-25.894"
             stroke-width="1.2" stroke-opacity="0.28"/>
  </g>

  <!-- 6 radial spokes (subtle) -->
  <g transform="translate(256 256)" stroke="#aaaaaa" stroke-width="1.2" stroke-opacity="0.30" fill="none">
    <line x1="0" y1="0" x2="149.5" y2="0"/>
    <line x1="0" y1="0" x2="74.75" y2="129.47"/>
    <line x1="0" y1="0" x2="-74.75" y2="129.47"/>
    <line x1="0" y1="0" x2="-149.5" y2="0"/>
    <line x1="0" y1="0" x2="-74.75" y2="-129.47"/>
    <line x1="0" y1="0" x2="74.75" y2="-129.47"/>
  </g>

  <!-- photon sphere glow -->
  <circle cx="256" cy="256" r="46" fill="url(#photon)"/>
  <!-- event horizon — solid dark disk -->
  <circle cx="256" cy="256" r="30" fill="url(#well)"/>
  <!-- thin ring at horizon edge -->
  <circle cx="256" cy="256" r="30" fill="none" stroke="#ffffff" stroke-width="0.8" stroke-opacity="0.55"/>
</svg>
