<?xml version="1.0" encoding="UTF-8"?>
<!-- dancinlab org avatar · Hexagon + Gravitational Well · monochrome -->
<svg xmlns="http://www.w3.org/2000/svg" viewBox="0 0 512 512" width="512" height="512">
  <defs>
    <radialGradient id="well" cx="50%" cy="50%" r="50%">
      <stop offset="0%"   stop-color="#000000"/>
      <stop offset="60%"  stop-color="#000000"/>
      <stop offset="85%"  stop-color="#0c0c0c"/>
      <stop offset="100%" stop-color="#1a1a1a"/>
    </radialGradient>
    <radialGradient id="bg" cx="50%" cy="50%" r="75%">
      <stop offset="0%"   stop-color="#1c1c1c"/>
      <stop offset="100%" stop-color="#050505"/>
    </radialGradient>
    <!-- glow around event horizon -->
    <radialGradient id="photon" cx="50%" cy="50%" r="50%">
      <stop offset="0%"   stop-color="#ffffff" stop-opacity="0.0"/>
      <stop offset="70%"  stop-color="#ffffff" stop-opacity="0.0"/>
      <stop offset="85%"  stop-color="#ffffff" stop-opacity="0.35"/>
      <stop offset="100%" stop-color="#ffffff" stop-opacity="0.0"/>
    </radialGradient>
  </defs>

  <!-- Full-canvas body with macOS squircle corners (radius 226/1024 → 113/512).
       macOS Dock does NOT auto-mask app icons, so squircle must be baked into PNG. -->
  <rect x="35" y="35" width="442" height="442" rx="99" ry="99" fill="url(#bg)"/>

  <!-- concentric hexagons (flat-top) warping toward center.
       scale 0.75 → outer vertex 172 px from center (body half-width 206 → 34 px margin inside squircle). -->
  <g transform="translate(256 256)" fill="none" stroke="#f0f0f0" stroke-linejoin="miter">
    <polygon points="160.386,0 80.193,138.897 -80.193,138.897 -160.386,0 -80.193,-138.897 80.193,-138.897"
             stroke-width="3.5" stroke-opacity="1.00"/>
    <polygon points="139.466,0 69.733,120.78 -69.733,120.78 -139.466,0 -69.733,-120.78 69.733,-120.78"
             stroke-width="2.6" stroke-opacity="0.85"/>
    <polygon points="119.941,0 59.97,103.872 -59.97,103.872 -119.941,0 -59.97,-103.872 59.97,-103.872"
             stroke-width="2.2" stroke-opacity="0.76"/>
    <polygon points="101.81,0 50.905,88.169 -50.905,88.169 -101.81,0 -50.905,-88.169 50.905,-88.169"
             stroke-width="1.9" stroke-opacity="0.68"/>
    <polygon points="85.074,0 42.537,73.677 -42.537,73.677 -85.074,0 -42.537,-73.677 42.537,-73.677"
             stroke-width="1.7" stroke-opacity="0.60"/>
    <polygon points="69.733,0 34.867,60.391 -34.867,60.391 -69.733,0 -34.867,-60.391 34.867,-60.391"
             stroke-width="1.5" stroke-opacity="0.52"/>
    <polygon points="55.786,0 27.893,48.313 -27.893,48.313 -55.786,0 -27.893,-48.313 27.893,-48.313"
             stroke-width="1.4" stroke-opacity="0.44"/>
    <polygon points="43.234,0 21.617,37.443 -21.617,37.443 -43.234,0 -21.617,-37.443 21.617,-37.443"
             stroke-width="1.3" stroke-opacity="0.36"/>
    <polygon points="32.077,0 16.039,27.779 -16.039,27.779 -32.077,0 -16.039,-27.779 16.039,-27.779"
             stroke-width="1.2" stroke-opacity="0.28"/>
  </g>

  <!-- 6 radial spokes (subtle) -->
  <g transform="translate(256 256)" stroke="#aaaaaa" stroke-width="1.2" stroke-opacity="0.30" fill="none">
    <line x1="0" y1="0" x2="160.386" y2="0"/>
    <line x1="0" y1="0" x2="80.193" y2="138.897"/>
    <line x1="0" y1="0" x2="-80.193" y2="138.897"/>
    <line x1="0" y1="0" x2="-160.386" y2="0"/>
    <line x1="0" y1="0" x2="-80.193" y2="-138.897"/>
    <line x1="0" y1="0" x2="80.193" y2="-138.897"/>
  </g>

  <!-- photon sphere glow -->
  <circle cx="256" cy="256" r="46" fill="url(#photon)"/>
  <!-- event horizon — solid dark disk -->
  <circle cx="256" cy="256" r="30" fill="url(#well)"/>
  <!-- thin ring at horizon edge -->
  <circle cx="256" cy="256" r="30" fill="none" stroke="#ffffff" stroke-width="0.8" stroke-opacity="0.55"/>
</svg>
